<?xml version="1.0" encoding="UTF-8"?>
<svg width="27px" height="17px" viewBox="0 0 27 17" version="1.1" xmlns="http://www.w3.org/2000/svg" xmlns:xlink="http://www.w3.org/1999/xlink">
    <!-- Generator: Sketch 52.4 (67378) - http://www.bohemiancoding.com/sketch -->
    <title>mastercard</title>
    <desc>Created with Sketch.</desc>
    <g id="Page-1" stroke="none" stroke-width="1" fill="none" fill-rule="evenodd">
        <g id="09.-Fechar-Conta" transform="translate(-20.000000, -633.000000)">
            <g id="List_rest1" transform="translate(20.000000, 633.000000)">
                <g id="mastercard">
                    <path d="M17,8.5 C17,13.1954352 13.1951475,17 8.5,17 C3.80485249,17 0,13.1945962 0,8.5 C0,3.80540383 3.80578503,0 8.5,0 C13.194215,0 17,3.80540383 17,8.5 Z" id="Path" fill="#E2574C"></path>
                    <path d="M18.5005127,0 C16.594875,0 14.8405361,0.634960763 13.4228207,1.69493784 L13.4296259,1.69577687 C13.7084519,1.96519937 14.0160835,2.1548206 14.2532395,2.46498275 L12.4852902,2.49304371 C12.2082353,2.77272104 11.955791,3.07700998 11.717796,3.39323181 L14.8354089,3.39323181 C15.0725649,3.67794333 15.2918223,3.92536454 15.4907573,4.23981508 L11.1525929,4.23981508 C10.99365,4.51352596 10.8466394,4.79488136 10.7182731,5.08723739 L15.9846458,5.08723739 C16.1223343,5.37875439 16.2455733,5.59895368 16.3501681,5.907531 L10.4063533,5.907531 C10.312013,6.20081929 10.231283,6.50081984 10.1700364,6.80678684 L16.5991632,6.80678684 C16.6620878,7.10091416 16.7104699,7.37285375 16.7436568,7.65001398 L10.0425091,7.65001398 C10.0144494,7.92969131 10,8.2135638 10,8.50004661 L16.7920389,8.50004661 C16.7920389,8.80097942 16.7707843,9.07972449 16.7402076,9.35007924 L10.0425091,9.35007924 C10.0714078,9.63824012 10.1139169,9.92127357 10.1700364,10.2001119 L16.5889088,10.2001119 C16.5226282,10.4755008 16.4460932,10.7525678 16.3500749,11.0398897 L10.3867768,11.0398897 C10.4768289,11.3305676 10.5865509,11.6127621 10.7063407,11.888151 L15.9846458,11.888151 C15.8384742,12.1975674 15.6727261,12.4448953 15.4900116,12.7347343 L11.1373978,12.7347343 C11.3091121,13.0322177 11.4986318,13.3160902 11.7042789,13.588123 L14.8355021,13.6348292 C14.5686084,13.9552461 14.2261119,14.1482235 13.914099,14.4287399 C13.9310653,14.4423508 13.4151765,14.4270618 12.399433,14.4109337 C13.9446757,16.0055606 16.1044357,17 18.5004195,17 C23.194784,17 27,13.1945238 27,8.50004661 C27,3.80556942 23.195623,0 18.5005127,0 Z" id="Path" fill="#F4B459"></path>
                </g>
            </g>
        </g>
    </g>
</svg>