<!-- Generated by IcoMoon.io -->
<svg version="1.1" xmlns="http://www.w3.org/2000/svg" width="32" height="32" viewBox="0 0 32 32">
<title>user</title>
<path d="M10.667 18.667c-3.666 0-6.667 3.001-6.667 6.667v2.667c-0 0.006-0 0.012-0 0.019 0 0.736 0.597 1.333 1.333 1.333s1.333-0.597 1.333-1.333c0-0.007-0-0.013-0-0.020v0.001-2.667c0-2.225 1.775-4 4-4h10.667c2.225 0 4 1.775 4 4v2.667c-0 0.006-0 0.012-0 0.019 0 0.736 0.597 1.333 1.333 1.333s1.333-0.597 1.333-1.333c0-0.007-0-0.013-0-0.020v0.001-2.667c0-3.666-3.001-6.667-6.667-6.667z"></path>
<path d="M16 2.667c-3.666 0-6.667 3.001-6.667 6.667s3.001 6.667 6.667 6.667c3.666 0 6.667-3.001 6.667-6.667s-3.001-6.667-6.667-6.667zM16 5.333c2.225 0 4 1.775 4 4s-1.775 4-4 4c-2.225 0-4-1.775-4-4s1.775-4 4-4z"></path>
</svg>
