<!-- Generated by IcoMoon.io -->
<svg version="1.1" xmlns="http://www.w3.org/2000/svg" width="32" height="32" viewBox="0 0 32 32">
<title>edit-2</title>
<path d="M21.313 2.667c-0.361 0.006-0.685 0.154-0.922 0.391l-17.333 17.333c-0.241 0.241-0.391 0.575-0.391 0.943v0 6.667c0 0.736 0.597 1.333 1.333 1.333h6.667c0.368-0 0.701-0.149 0.943-0.391l17.333-17.333c0.241-0.241 0.39-0.575 0.39-0.943s-0.149-0.701-0.39-0.943l-6.667-6.667c-0.241-0.241-0.575-0.391-0.943-0.391-0.007 0-0.014 0-0.021 0h0.001zM21.333 5.885l4.781 4.781-16 16h-4.781v-4.781z"></path>
</svg>
