<!-- Generated by IcoMoon.io -->
<svg version="1.1" xmlns="http://www.w3.org/2000/svg" width="32" height="32" viewBox="0 0 32 32">
<title>shopping-cart</title>
<path d="M12 25.333c-1.457 0-2.667 1.21-2.667 2.667s1.21 2.667 2.667 2.667c1.457 0 2.667-1.21 2.667-2.667s-1.21-2.667-2.667-2.667z"></path>
<path d="M26.667 25.333c-1.457 0-2.667 1.21-2.667 2.667s1.21 2.667 2.667 2.667c1.457 0 2.667-1.21 2.667-2.667s-1.21-2.667-2.667-2.667z"></path>
<path d="M1.333 0c-0.006-0-0.012-0-0.019-0-0.736 0-1.333 0.597-1.333 1.333s0.597 1.333 1.333 1.333c0.007 0 0.013-0 0.020-0h4.239l1.078 5.38c0.005 0.153 0.035 0.297 0.086 0.431l-0.003-0.009 2.198 10.979c0.377 1.891 2.072 3.256 4 3.219h12.909c1.928 0.037 3.624-1.329 4-3.221-0.002 0.007-0.001 0.004-0 0.002l0.003-0.009 2.133-11.187c0.015-0.075 0.024-0.162 0.024-0.25 0-0.736-0.597-1.333-1.333-1.333-0 0-0 0-0 0h-21.573l-1.12-5.594c-0.126-0.616-0.663-1.073-1.307-1.073h-0zM9.628 9.333h19.427l-1.828 9.594c-0.128 0.642-0.679 1.085-1.333 1.073-0.004-0-0.008-0-0.013-0s-0.009 0-0.014 0h-12.96c-0.004-0-0.008-0-0.013-0s-0.009 0-0.014 0h0.001c-0.655 0.013-1.206-0.431-1.333-1.073 0-0 0-0.001 0-0.001s0-0.001 0-0.001v0z"></path>
</svg>
