<!-- Generated by IcoMoon.io -->
<svg version="1.1" xmlns="http://www.w3.org/2000/svg" width="32" height="32" viewBox="0 0 32 32">
<title>x-circle</title>
<path d="M16 1.333c-8.084 0-14.667 6.582-14.667 14.667s6.582 14.667 14.667 14.667c8.084 0 14.667-6.582 14.667-14.667s-6.582-14.667-14.667-14.667zM16 4c6.643 0 12 5.357 12 12s-5.357 12-12 12c-6.643 0-12-5.357-12-12s5.357-12 12-12z"></path>
<path d="M19.974 10.654c-0.36 0.011-0.683 0.163-0.916 0.403l-8 8c-0.253 0.243-0.41 0.584-0.41 0.962 0 0.736 0.597 1.333 1.333 1.333 0.378 0 0.719-0.157 0.961-0.41l0-0 8-8c0.249-0.243 0.404-0.581 0.404-0.956 0-0.736-0.597-1.333-1.333-1.333-0.014 0-0.028 0-0.041 0.001l0.002-0z"></path>
<path d="M11.987 10.654c-0.736 0-1.333 0.597-1.333 1.333 0 0.375 0.154 0.713 0.403 0.955l8 8c0.243 0.253 0.584 0.41 0.962 0.41 0.736 0 1.333-0.597 1.333-1.333 0-0.378-0.157-0.719-0.41-0.961l-0-0-8-8c-0.242-0.249-0.581-0.404-0.956-0.404v0z"></path>
</svg>
