<!-- Generated by IcoMoon.io -->
<svg version="1.1" xmlns="http://www.w3.org/2000/svg" width="32" height="32" viewBox="0 0 32 32">
<title>settings</title>
<path d="M16 10.667c-2.93 0-5.333 2.404-5.333 5.333s2.404 5.333 5.333 5.333c2.93 0 5.333-2.404 5.333-5.333s-2.404-5.333-5.333-5.333zM16 13.333c1.489 0 2.667 1.178 2.667 2.667s-1.178 2.667-2.667 2.667c-1.489 0-2.667-1.178-2.667-2.667s1.178-2.667 2.667-2.667z"></path>
<path d="M16 0c-2.193 0-4 1.807-4 4v0.221c-0.001 0.326-0.207 0.594-0.492 0.742-0.062 0.019-0.113 0.038-0.162 0.061l0.008-0.003c-0.328 0.145-0.7 0.076-0.956-0.174l-0.068-0.068c-1.55-1.552-4.107-1.553-5.659-0.003-1.553 1.551-1.553 4.11 0 5.661l0.068 0.068c0.251 0.256 0.319 0.628 0.174 0.956-0.008 0.017-0.019 0.043-0.028 0.069l-0.003 0.009c-0.124 0.338-0.434 0.559-0.794 0.568h-0.089c-2.193 0-4 1.807-4 4s1.807 4 4 4h0.221c0.349 0.001 0.657 0.205 0.794 0.526 0.005 0.013 0.007 0.018 0.008 0.022l-0.003-0.009c0.145 0.328 0.076 0.7-0.174 0.956l-0.068 0.068c-1.552 1.55-1.553 4.107-0.003 5.659 0.001 0.001 0.002-0.001 0.003 0s-0.001 0.002 0 0.003c1.551 1.55 4.108 1.55 5.659-0.003l0.068-0.068c0.256-0.251 0.628-0.319 0.956-0.174 0.017 0.008 0.043 0.018 0.069 0.028l0.009 0.003c0.338 0.124 0.559 0.434 0.568 0.794v0.088c0 2.193 1.807 4 4 4s4-1.807 4-4v-0.221c0.001-0.349 0.205-0.657 0.526-0.794 0.013-0.005 0.018-0.007 0.022-0.008l-0.009 0.003c0.328-0.145 0.7-0.076 0.956 0.174l0.068 0.068c1.55 1.552 4.107 1.553 5.659 0.003v-0.003c1.55-1.551 1.552-4.105 0.003-5.656l-0.070-0.070c-0.251-0.256-0.319-0.628-0.174-0.956-0.001 0.005 0 0 0.002-0.004l0.003-0.009c0.137-0.321 0.445-0.525 0.794-0.526h0.115c2.193 0 4-1.807 4-4s-1.807-4-4-4h-0.221c-0.326-0.001-0.594-0.207-0.742-0.492-0.019-0.062-0.038-0.113-0.061-0.162l0.003 0.008c-0.145-0.328-0.076-0.7 0.174-0.956l0.068-0.068c1.552-1.55 1.553-4.107 0.003-5.659-1.551-1.553-4.11-1.553-5.661 0l-0.068 0.068c-0.256 0.251-0.628 0.319-0.956 0.174 0.005 0.001 0-0-0.004-0.002l-0.009-0.003c-0.321-0.137-0.525-0.445-0.526-0.794v-0.115c0-2.193-1.807-4-4-4zM16 2.667c0.752 0 1.333 0.581 1.333 1.333v0.12c0 0.001 0 0.002 0 0.003s0 0.002 0 0.003v-0c0.006 1.402 0.848 2.674 2.135 3.229 1.316 0.577 2.863 0.297 3.891-0.708 0.003-0.003 0.007-0.007 0.010-0.010l0-0 0.081-0.078c0-0 0-0.001 0-0.001s0-0.001 0-0.001v0c0.532-0.533 1.353-0.533 1.885 0 0.001 0.001 0.002 0.001 0.002 0.002l0 0c0.533 0.532 0.533 1.353 0 1.885-0 0-0.001 0-0.001 0s-0.001 0-0.001 0h0l-0.078 0.081c-0.003 0.003-0.007 0.007-0.010 0.010l-0 0c-1.007 1.030-1.29 2.581-0.708 3.898l-0.112-0.539v0.107c0 0.001 0 0.002 0 0.003 0 0.189 0.039 0.369 0.11 0.531l-0.003-0.009c0.553 1.291 1.83 2.135 3.234 2.141 0.001 0 0.002 0 0.003 0s0.002 0 0.003 0h0.226c0.752 0 1.333 0.581 1.333 1.333s-0.581 1.333-1.333 1.333h-0.12c-0.001 0-0.002 0-0.003 0s-0.002 0-0.003 0h0c-1.402 0.006-2.674 0.848-3.229 2.135-0.577 1.316-0.297 2.863 0.708 3.891 0.003 0.004 0.007 0.007 0.010 0.010l0 0 0.078 0.081c0 0 0.001 0 0.001 0s0.001 0 0.001 0h-0c0.533 0.532 0.533 1.353 0 1.885-0.001 0.001-0.002 0.002-0.003 0.003l-0 0c-0.532 0.533-1.353 0.533-1.885 0 0-0 0-0.001 0-0.001s0-0.001 0-0.001v0l-0.081-0.078c-0.003-0.004-0.007-0.007-0.010-0.010l-0-0c-1.028-1.005-2.574-1.286-3.891-0.708-1.287 0.555-2.13 1.827-2.135 3.229 0 0.001 0 0.002 0 0.003s0 0.002 0 0.003v-0 0.227c0 0.752-0.581 1.333-1.333 1.333s-1.333-0.581-1.333-1.333v-0.12c0-0.005 0-0.010 0-0.016s-0-0.011-0-0.016v0.001c-0.033-1.431-0.944-2.698-2.279-3.208-1.308-0.557-2.836-0.283-3.854 0.714-0.004 0.003-0.007 0.007-0.010 0.010l-0 0-0.081 0.078c0 0 0 0.001 0 0.001s0 0.001 0 0.001v-0c-0.532 0.533-1.353 0.533-1.885 0-0.001-0.001-0.002-0.002-0.003-0.003l0 0c-0.533-0.532-0.533-1.353 0-1.885 0 0 0.001 0 0.001 0s0.001 0 0.001 0h-0l0.078-0.081c0.004-0.003 0.007-0.007 0.010-0.010l0-0c1.005-1.028 1.286-2.574 0.708-3.891-0.555-1.287-1.827-2.13-3.229-2.135-0.001 0-0.002 0-0.003 0s-0.002 0-0.003 0h-0.226c-0.752 0-1.333-0.581-1.333-1.333s0.581-1.333 1.333-1.333h0.12c0.005 0 0.010 0 0.016 0s0.011-0 0.016-0h-0.001c1.431-0.033 2.698-0.944 3.208-2.279 0.557-1.308 0.283-2.836-0.714-3.854-0.003-0.004-0.007-0.007-0.010-0.010l-0-0-0.078-0.081c-0 0-0.001 0-0.001 0s-0.001 0-0.001 0h0c-0.533-0.532-0.533-1.353 0-1.885 0.001-0.001 0.002-0.002 0.003-0.003l0-0c0.532-0.533 1.353-0.533 1.885 0 0 0 0 0.001 0 0.001s0 0.001 0 0.001v-0l0.081 0.078c0.004 0.004 0.007 0.007 0.010 0.010l0 0c1.030 1.007 2.581 1.29 3.898 0.708l-0.539 0.112h0.107c0.001 0 0.002 0 0.003 0 0.189 0 0.369-0.039 0.531-0.11l-0.009 0.003c1.291-0.553 2.135-1.83 2.141-3.234 0-0.001 0-0.002 0-0.003s0-0.002 0-0.003v0-0.227c0-0.752 0.581-1.333 1.333-1.333z"></path>
</svg>
