<?xml version="1.0" encoding="UTF-8"?>
<svg width="54px" height="54px" viewBox="0 0 54 54" version="1.1" xmlns="http://www.w3.org/2000/svg" xmlns:xlink="http://www.w3.org/1999/xlink">
    <!-- Generator: Sketch 52.4 (67378) - http://www.bohemiancoding.com/sketch -->
    <title>ic_cart</title>
    <desc>Created with Sketch.</desc>
    <defs>
        <circle id="path-1" cx="20" cy="20" r="20"></circle>
        <filter x="-33.8%" y="-18.8%" width="167.5%" height="167.5%" filterUnits="objectBoundingBox" id="filter-2">
            <feOffset dx="0" dy="6" in="SourceAlpha" result="shadowOffsetOuter1"></feOffset>
            <feGaussianBlur stdDeviation="3.5" in="shadowOffsetOuter1" result="shadowBlurOuter1"></feGaussianBlur>
            <feColorMatrix values="0 0 0 0 0   0 0 0 0 0   0 0 0 0 0  0 0 0 0.105949955 0" type="matrix" in="shadowBlurOuter1"></feColorMatrix>
        </filter>
    </defs>
    <g id="Page-1" stroke="none" stroke-width="1" fill="none" fill-rule="evenodd">
        <g id="05.-Restaurante" transform="translate(-312.000000, -33.000000)">
            <g id="Rest-Header" transform="translate(0.000000, 34.000000)">
                <g id="ic_cart" transform="translate(319.000000, 0.000000)">
                    <g id="Oval-2">
                        <use fill="black" fill-opacity="1" filter="url(#filter-2)" xlink:href="#path-1"></use>
                        <use fill="#F8254A" fill-rule="evenodd" xlink:href="#path-1"></use>
                    </g>
                    <g id="ic_shopping_cart_black_24px" transform="translate(8.000000, 10.000000)">
                        <polygon id="Shape" points="0 0 20 0 20 20 0 20"></polygon>
                        <path d="M8.33333333,15.8333333 C7.41666667,15.8333333 6.675,16.5833333 6.675,17.5 C6.675,18.4166667 7.41666667,19.1666667 8.33333333,19.1666667 C9.25,19.1666667 10,18.4166667 10,17.5 C10,16.5833333 9.25,15.8333333 8.33333333,15.8333333 Z M3.33333333,2.5 L3.33333333,4.16666667 L5,4.16666667 L8,10.4916667 L6.875,12.5333333 C6.74166667,12.7666667 6.66666667,13.0416667 6.66666667,13.3333333 C6.66666667,14.25 7.41666667,15 8.33333333,15 L18.3333333,15 L18.3333333,13.3333333 L8.68333333,13.3333333 C8.56666667,13.3333333 8.475,13.2416667 8.475,13.125 L8.5,13.025 L9.25,11.6666667 L15.4583333,11.6666667 C16.0833333,11.6666667 16.6333333,11.325 16.9166667,10.8083333 L19.9,5.4 C19.9666667,5.28333333 20,5.14166667 20,5 C20,4.54166667 19.625,4.16666667 19.1666667,4.16666667 L6.84166667,4.16666667 L6.05833333,2.5 L3.33333333,2.5 Z M16.6666667,15.8333333 C15.75,15.8333333 15.0083333,16.5833333 15.0083333,17.5 C15.0083333,18.4166667 15.75,19.1666667 16.6666667,19.1666667 C17.5833333,19.1666667 18.3333333,18.4166667 18.3333333,17.5 C18.3333333,16.5833333 17.5833333,15.8333333 16.6666667,15.8333333 Z" id="Shape" fill="#FFFFFF" fill-rule="nonzero"></path>
                    </g>
                </g>
            </g>
        </g>
    </g>
</svg>