<!-- Generated by IcoMoon.io -->
<svg version="1.1" xmlns="http://www.w3.org/2000/svg" width="32" height="32" viewBox="0 0 32 32">
<title>info</title>
<path d="M16 1.333c-8.084 0-14.667 6.582-14.667 14.667s6.582 14.667 14.667 14.667c8.084 0 14.667-6.582 14.667-14.667s-6.582-14.667-14.667-14.667zM16 4c6.643 0 12 5.357 12 12s-5.357 12-12 12c-6.643 0-12-5.357-12-12s5.357-12 12-12z"></path>
<path d="M15.979 14.648c-0.727 0.012-1.313 0.604-1.313 1.333 0 0.006 0 0.013 0 0.019v-0.001 5.333c-0 0.006-0 0.012-0 0.019 0 0.736 0.597 1.333 1.333 1.333s1.333-0.597 1.333-1.333c0-0.007-0-0.013-0-0.020v0.001-5.333c0-0.005 0-0.012 0-0.018 0-0.736-0.597-1.333-1.333-1.333-0.007 0-0.015 0-0.022 0h0.001z"></path>
<path d="M16 9.333c-0.006-0-0.012-0-0.019-0-0.736 0-1.333 0.597-1.333 1.333s0.597 1.333 1.333 1.333c0.007 0 0.013-0 0.020-0h-0.001c0.006 0 0.012 0 0.019 0 0.736 0 1.333-0.597 1.333-1.333s-0.597-1.333-1.333-1.333c-0.007 0-0.013 0-0.020 0h0.001z"></path>
</svg>
