<!-- Generated by IcoMoon.io -->
<svg version="1.1" xmlns="http://www.w3.org/2000/svg" width="32" height="32" viewBox="0 0 32 32">
<title>home</title>
<path d="M15.948 1.333c-0.291 0.012-0.556 0.116-0.768 0.283l0.003-0.002-12 9.333c-0.315 0.246-0.515 0.626-0.516 1.052v14.667c0 2.193 1.807 4 4 4h18.667c2.193 0 4-1.807 4-4v-14.667c-0-0.426-0.201-0.806-0.513-1.050l-0.003-0.002-12-9.333c-0.224-0.176-0.51-0.282-0.82-0.282-0.017 0-0.035 0-0.052 0.001l0.002-0zM16 4.357l10.667 8.294v14.016c0 0.752-0.581 1.333-1.333 1.333h-18.667c-0.752 0-1.333-0.581-1.333-1.333v-14.016z"></path>
<path d="M12 14.667c-0.736 0-1.333 0.597-1.333 1.333v0 13.333c-0 0.006-0 0.012-0 0.019 0 0.736 0.597 1.333 1.333 1.333s1.333-0.597 1.333-1.333c0-0.007-0-0.013-0-0.020v0.001-12h5.333v12c-0 0.006-0 0.012-0 0.019 0 0.736 0.597 1.333 1.333 1.333s1.333-0.597 1.333-1.333c0-0.007-0-0.013-0-0.020v0.001-13.333c-0-0.736-0.597-1.333-1.333-1.333v0z"></path>
</svg>
