<!-- Generated by IcoMoon.io -->
<svg version="1.1" xmlns="http://www.w3.org/2000/svg" width="32" height="32" viewBox="0 0 32 32">
<title>plus</title>
<path d="M15.979 5.315c-0.727 0.012-1.313 0.604-1.313 1.333 0 0.006 0 0.013 0 0.019v-0.001 18.667c-0 0.006-0 0.012-0 0.019 0 0.736 0.597 1.333 1.333 1.333s1.333-0.597 1.333-1.333c0-0.007-0-0.013-0-0.020v0.001-18.667c0-0.005 0-0.012 0-0.018 0-0.736-0.597-1.333-1.333-1.333-0.007 0-0.015 0-0.022 0h0.001z"></path>
<path d="M6.667 14.667c-0.006-0-0.012-0-0.019-0-0.736 0-1.333 0.597-1.333 1.333s0.597 1.333 1.333 1.333c0.007 0 0.013-0 0.020-0h18.666c0.006 0 0.012 0 0.019 0 0.736 0 1.333-0.597 1.333-1.333s-0.597-1.333-1.333-1.333c-0.007 0-0.013 0-0.020 0h0.001z"></path>
</svg>
