<!-- Generated by IcoMoon.io -->
<svg version="1.1" xmlns="http://www.w3.org/2000/svg" width="32" height="32" viewBox="0 0 32 32">
<title>clock</title>
<path d="M16 1.333c-8.084 0-14.667 6.582-14.667 14.667s6.582 14.667 14.667 14.667c8.084 0 14.667-6.582 14.667-14.667s-6.582-14.667-14.667-14.667zM16 4c6.643 0 12 5.357 12 12s-5.357 12-12 12c-6.643 0-12-5.357-12-12s5.357-12 12-12z"></path>
<path d="M15.979 6.648c-0.727 0.012-1.313 0.604-1.313 1.333 0 0.006 0 0.013 0 0.019v-0.001 8c0 0 0 0 0 0 0 0.519 0.297 0.969 0.729 1.189l0.008 0.003 5.333 2.667c0.174 0.089 0.379 0.141 0.597 0.141 0.736 0 1.334-0.597 1.334-1.334 0-0.519-0.297-0.969-0.73-1.189l-0.008-0.003-4.596-2.297v-7.177c0-0.005 0-0.012 0-0.018 0-0.736-0.597-1.333-1.333-1.333-0.007 0-0.015 0-0.022 0h0.001z"></path>
</svg>
